<svg width="80" height="80" viewBox="0 0 80 80" fill="none" xmlns="http://www.w3.org/2000/svg">
<circle cx="40" cy="40" r="39.5" fill="#F6FBFD" stroke="#0BBF90" stroke-dasharray="3 3"/>
<g clip-path="url(#clip0_7795_61722)">
<path d="M25.4089 40.0388C25.0865 40.1576 24.9202 40.515 25.0377 40.8387L25.4302 41.9187L28.4188 38.9301L25.4089 40.0388ZM28.2376 49.6385L30.0375 54.5883C30.0654 54.6656 30.1084 54.7365 30.1639 54.7971C30.2195 54.8576 30.2866 54.9064 30.3612 54.9408C30.4438 54.9792 30.5338 54.9993 30.6249 54.9995C30.6987 54.9995 30.7712 54.9871 30.8412 54.9608L32.8274 54.2284L28.2376 49.6385ZM54.9616 45.4124L52.9017 39.7488L47.9582 44.6924L50.4081 43.7899C50.7293 43.6674 51.0918 43.8349 51.2106 44.1599C51.3305 44.4836 51.1643 44.8436 50.8405 44.9624L47.7282 46.1098C47.6589 46.1355 47.5857 46.1486 47.5119 46.1486C47.2581 46.1486 47.0181 45.9923 46.9257 45.7398C46.9245 45.7361 46.9257 45.7323 46.9245 45.7286L41.6859 50.9671L54.5904 46.2123C54.9141 46.0936 55.0804 45.7361 54.9616 45.4124ZM54.8166 35.1827L44.817 25.1831C44.5732 24.9393 44.177 24.9393 43.9332 25.1831L25.1839 43.9324C24.9401 44.1761 24.9401 44.5724 25.1839 44.8161L35.1836 54.8158C35.2412 54.8742 35.31 54.9205 35.3857 54.952C35.4615 54.9835 35.5428 54.9997 35.6248 54.9995C35.7848 54.9995 35.9448 54.9383 36.0673 54.817L54.8166 36.0677C54.9337 35.9502 54.9994 35.7911 54.9994 35.6252C54.9994 35.4593 54.9337 35.3002 54.8166 35.1827ZM32.3174 42.3175L29.8175 44.8174C29.6999 44.9342 29.5408 44.9998 29.375 44.9998C29.2092 44.9998 29.0502 44.9342 28.9325 44.8174C28.6888 44.5736 28.6888 44.1774 28.9325 43.9336L31.4325 41.4337C31.6762 41.1899 32.0725 41.1899 32.3162 41.4337C32.5599 41.6775 32.5612 42.0725 32.3174 42.3175ZM43.1108 43.1112C42.6683 43.5537 42.0671 43.7662 41.3983 43.7662C40.2933 43.7662 39.0022 43.1875 37.9222 42.1062C37.1322 41.3162 36.5772 40.3712 36.361 39.4463C36.121 38.4151 36.3185 37.5177 36.9172 36.9177C37.516 36.3177 38.4134 36.1202 39.4459 36.3615C40.3709 36.5777 41.3158 37.1314 42.1058 37.9226C43.842 39.6575 44.2845 41.9375 43.1108 43.1112ZM51.0668 36.0677L48.5668 38.5676C48.4492 38.6845 48.2901 38.75 48.1244 38.75C47.9586 38.75 47.7995 38.6845 47.6819 38.5676C47.4381 38.3239 47.4381 37.9276 47.6819 37.6839L50.1818 35.1839C50.4255 34.9402 50.8218 34.9402 51.0655 35.1839C51.3093 35.4277 51.3105 35.8227 51.0668 36.0677Z" fill="#2F4740"/>
</g>
<defs>
<clipPath id="clip0_7795_61722">
<rect width="30" height="30" fill="white" transform="translate(25 25)"/>
</clipPath>
</defs>
</svg>
