<svg width="80" height="80" viewBox="0 0 80 80" fill="none" xmlns="http://www.w3.org/2000/svg">
<circle cx="40" cy="40" r="39.5" fill="#F6FBFD" stroke="#0BBF90" stroke-dasharray="3 3"/>
<path d="M50.94 35.6396L40.9865 30.6628C41.088 30.3105 41.2618 29.9823 41.563 29.7602C42.2351 29.2649 42.6367 28.471 42.6367 27.6367C42.6367 26.1828 41.4539 25 40 25C38.5461 25 37.3633 26.1828 37.3633 27.6367C37.3633 28.1225 37.7564 28.5156 38.2422 28.5156C38.728 28.5156 39.1211 28.1225 39.1211 27.6367C39.1211 27.1518 39.5151 26.7578 40 26.7578C40.4849 26.7578 40.8789 27.1518 40.8789 27.6367C40.8789 27.9191 40.7476 28.1775 40.5193 28.3457C39.7971 28.8782 39.3347 29.6801 39.1879 30.5757L29.06 35.6396C28.914 35.7126 28.7913 35.8249 28.7055 35.9637C28.6197 36.1026 28.5742 36.2626 28.5742 36.4258V39.9414C28.5742 40.4272 28.9673 40.8203 29.4531 40.8203H32.0898V54.1211C32.0898 54.6069 32.4829 55 32.9688 55H47.0312C47.5171 55 47.9102 54.6069 47.9102 54.1211V40.8203H50.5469C51.0327 40.8203 51.4258 40.4272 51.4258 39.9414V36.4258C51.4258 36.2626 51.3803 36.1026 51.2945 35.9637C51.2087 35.8248 51.086 35.7126 50.94 35.6396ZM42.6367 34.48C42.6367 35.9918 41.5073 37.3826 39.861 37.3007C38.463 37.2313 37.3633 36.0681 37.3633 34.668V33.4534L40 32.1351L42.6367 33.4534V34.48Z" fill="#2F4740"/>
</svg>
