<svg width="24" height="24" viewBox="0 0 24 24" fill="none" xmlns="http://www.w3.org/2000/svg">
<path d="M6 20C6 18.2824 6.68482 16.6352 7.90381 15.4206C9.12279 14.2061 10.7761 13.5238 12.5 13.5238C14.2239 13.5238 15.8772 14.2061 17.0962 15.4206C18.3152 16.6352 19 18.2824 19 20H17.375C17.375 18.7118 16.8614 17.4764 15.9471 16.5655C15.0329 15.6546 13.7929 15.1429 12.5 15.1429C11.2071 15.1429 9.96709 15.6546 9.05285 16.5655C8.13861 17.4764 7.625 18.7118 7.625 20H6ZM12.5 12.7143C9.80656 12.7143 7.625 10.5407 7.625 7.85714C7.625 5.17357 9.80656 3 12.5 3C15.1934 3 17.375 5.17357 17.375 7.85714C17.375 10.5407 15.1934 12.7143 12.5 12.7143ZM12.5 11.0952C14.2956 11.0952 15.75 9.64619 15.75 7.85714C15.75 6.0681 14.2956 4.61905 12.5 4.61905C10.7044 4.61905 9.25 6.0681 9.25 7.85714C9.25 9.64619 10.7044 11.0952 12.5 11.0952Z" fill="#079A74"/>
</svg>
