<svg width="59" height="59" viewBox="0 0 59 59" fill="none" xmlns="http://www.w3.org/2000/svg">
<circle cx="29.5" cy="29.5" r="29" fill="white" stroke="#0BBF90" stroke-dasharray="3 3"/>
<path d="M27.1874 17.8125H30.9374V19.2188H27.1874V17.8125ZM34.6842 29.8439C33.5128 29.8439 33.5128 28.5938 32.3414 28.5938C31.1699 28.5938 31.1699 29.8439 29.9985 29.8439C28.8271 29.8439 28.8267 28.5938 27.6548 28.5938C26.4829 28.5938 26.4839 29.8439 25.3129 29.8439C24.141 29.8439 24.141 28.5938 22.9687 28.5938C21.7959 28.5938 21.7959 29.8439 20.6226 29.8439C19.4493 29.8439 19.4498 28.5938 18.277 28.5938V43.125H36.5582V28.6781C35.8293 28.9556 35.6732 29.8439 34.6842 29.8439ZM39.3726 29.8439C38.3826 29.8439 38.226 28.9552 37.4957 28.6777V43.125H41.7187V28.5938C40.5459 28.5938 40.5459 29.8439 39.3726 29.8439Z" fill="#2F4740"/>
<path d="M25.3129 28.906C25.4648 28.906 25.5145 28.8821 25.7995 28.5779C26.0167 28.2916 26.2973 28.0594 26.6192 27.8996C26.9411 27.7397 27.2956 27.6566 27.6551 27.6566C28.0145 27.6566 28.369 27.7397 28.6909 27.8996C29.0128 28.0594 29.2934 28.2916 29.5106 28.5779C29.7933 28.8793 29.8458 28.906 29.9953 28.906C29.8295 27.9396 29.8788 26.9486 30.1397 26.0035C30.4543 24.7102 31.1766 23.5524 32.1998 22.7012C31.7309 22.1783 31.1345 21.786 30.4687 21.5626V20.1563H27.6562V21.5626C26.8372 21.8356 26.1249 22.3594 25.6201 23.0598C25.1153 23.7601 24.8437 24.6016 24.8437 25.4649V28.5971C25.0978 28.8671 25.1578 28.906 25.3129 28.906ZM38.8837 28.5774C39.1575 28.8694 39.2123 28.9065 39.3726 28.9065C39.5329 28.9065 39.5883 28.869 39.8625 28.5769C39.9581 28.4748 40.0701 28.3585 40.1995 28.2432C40.6073 26.1544 39.8803 24.2462 38.4754 23.8698C37.9705 23.7467 37.438 23.8125 36.9783 24.0549C37.0547 23.5776 37.2867 23.1389 37.6383 22.8071C37.8158 22.6726 38.02 22.5776 38.2373 22.5286C38.4545 22.4796 38.6797 22.4777 38.8978 22.523C38.9596 22.5331 39.0227 22.5307 39.0836 22.516C39.1444 22.5012 39.2017 22.4745 39.252 22.4373C39.3023 22.4 39.3446 22.3531 39.3765 22.2993C39.4084 22.2454 39.4292 22.1857 39.4377 22.1237C39.4461 22.0617 39.4421 21.9986 39.4258 21.9382C39.4094 21.8777 39.3812 21.8212 39.3427 21.7719C39.3041 21.7225 39.2561 21.6814 39.2015 21.651C39.1468 21.6205 39.0866 21.6013 39.0243 21.5944C38.6786 21.5303 38.3232 21.5406 37.9818 21.6247C37.6404 21.7087 37.3208 21.8646 37.0443 22.0819C36.5358 22.5388 36.1927 23.1511 36.0684 23.8233C35.7911 23.3764 35.3587 23.0476 34.8539 22.8999C33.3534 22.4973 31.6481 23.9958 31.0453 26.2468C30.8699 26.8893 30.8039 27.5567 30.8498 28.2212C31.2572 27.8503 31.7905 27.6484 32.3414 27.6563C32.7 27.6606 33.053 27.7457 33.3742 27.9053C33.6955 28.0648 33.9766 28.2947 34.1967 28.5779C34.4822 28.8821 34.5318 28.906 34.6842 28.906C34.8365 28.906 34.8867 28.8821 35.1717 28.5779C35.389 28.2915 35.6696 28.0593 35.9916 27.8995C36.3135 27.7396 36.6681 27.6564 37.0276 27.6563C37.3871 27.6563 37.7417 27.7394 38.0637 27.8992C38.3857 28.059 38.6663 28.2911 38.8837 28.5774ZM20.1337 28.5774C20.4075 28.8694 20.4623 28.9065 20.6226 28.9065C20.7829 28.9065 20.8383 28.869 21.1125 28.5769C21.3329 28.2939 21.6142 28.0642 21.9356 27.9048C22.2569 27.7455 22.61 27.6605 22.9687 27.6563C23.2919 27.6524 23.612 27.7198 23.9062 27.8537V25.4649C23.9089 24.641 24.114 23.8304 24.5034 23.1043C22.9537 19.1438 21.0248 16.5469 19.6734 16.9088C17.9981 17.3574 17.8218 22.1813 19.2187 27.856C19.5686 28.0334 19.8796 28.2786 20.1337 28.5774ZM22.7311 23.2243C22.8488 23.2641 22.9458 23.349 23.001 23.4604C23.0561 23.5718 23.0647 23.7005 23.025 23.8182L21.9417 27.0198C21.9019 27.1375 21.817 27.2347 21.7055 27.2899C21.5941 27.345 21.4653 27.3537 21.3476 27.3139C21.2298 27.2741 21.1326 27.1892 21.0774 27.0777C21.0223 26.9663 21.0136 26.8375 21.0534 26.7198L22.1372 23.5182C22.177 23.4005 22.2619 23.3034 22.3733 23.2483C22.4846 23.1932 22.6133 23.1846 22.7311 23.2243ZM19.9617 23.1137L21.0445 19.9121C21.0642 19.8538 21.0952 19.7999 21.1357 19.7535C21.1762 19.7072 21.2255 19.6693 21.2807 19.642C21.3921 19.5868 21.5209 19.5782 21.6386 19.618C21.697 19.6377 21.7508 19.6686 21.7972 19.7092C21.8435 19.7497 21.8815 19.7989 21.9088 19.8541C21.9361 19.9093 21.9523 19.9693 21.9564 20.0307C21.9605 20.0921 21.9525 20.1538 21.9328 20.2121L20.85 23.4141C20.8316 23.474 20.8014 23.5297 20.7611 23.5777C20.7209 23.6257 20.6714 23.6652 20.6156 23.6938C20.5599 23.7224 20.4989 23.7395 20.4364 23.7441C20.3739 23.7487 20.3112 23.7408 20.2518 23.7207C20.1924 23.7006 20.1377 23.6689 20.0908 23.6273C20.0439 23.5857 20.0058 23.5351 19.9788 23.4786C19.9518 23.422 19.9365 23.3606 19.9336 23.298C19.9307 23.2354 19.9404 23.1729 19.9622 23.1141L19.9617 23.1137Z" fill="#2F4740"/>
</svg>
