<svg width="59" height="59" viewBox="0 0 59 59" fill="none" xmlns="http://www.w3.org/2000/svg">
<circle cx="29.5" cy="29.5" r="29" fill="white" stroke="#0BBF90" stroke-dasharray="3 3"/>
<g clip-path="url(#clip0_7795_61702)">
<path d="M38.119 23.1537C38.0879 23.0617 38.0456 22.974 37.9931 22.8923L37.1757 24.7313L37.3657 24.6676C37.9918 24.4576 38.329 23.7797 38.119 23.1537ZM35.2778 27.2686L31.1667 26.8135L29.0817 22.7719L31.7285 25.7207L32.7324 25.8318L33.8466 23.3255L32.0789 23.9185L32.168 23.5263C32.3861 22.5661 31.7847 21.6109 30.8244 21.3928C30.8244 21.3928 28.8398 20.9831 27.9462 20.7388C27.1529 20.522 25.8611 20.8407 25.5905 22.0319C24.8984 25.078 24.9245 24.9636 25.1099 24.1474L23.5639 30.9519L23.568 30.9528L22.8748 36.0137L18.871 42.9074C18.4847 43.5725 18.7107 44.425 19.376 44.8114C20.0412 45.1977 20.8936 44.9717 21.28 44.3064L22.4894 42.224C22.4657 42.1131 22.4536 42 22.4533 41.8866C22.4532 41.1556 22.9331 40.5347 23.5942 40.3217L25.4218 37.1751C25.513 37.018 25.5726 36.8446 25.5973 36.6646L26.2948 31.5725L27.2771 31.7957L28.6719 34.9671L30.7345 30.3268L30.1401 30.2609C29.0422 30.1393 28.3558 29.293 28.2218 28.7589L27.0329 24.0167C29.504 28.8067 29.3411 28.4961 29.386 28.5675C29.4816 28.72 29.6104 28.849 29.7629 28.9446C29.9153 29.0403 30.0874 29.1002 30.2663 29.1199L35.015 29.6455C35.675 29.7187 36.2626 29.2402 36.3347 28.5886C36.4072 27.9329 35.9349 27.3414 35.2778 27.2686Z" fill="#2F4740"/>
<path d="M25.5906 22.0314C25.5918 22.0259 25.5918 22.0261 25.5906 22.0314V22.0314ZM32.1655 36.0031L30.2809 40.2428H30.9987C31.5932 40.2428 32.115 40.5601 32.4038 41.0341C32.2354 36.0362 32.1655 36.0031 32.1655 36.0031Z" fill="#2F4740"/>
<path d="M30.516 20.2784C31.9736 20.2784 33.1552 19.0968 33.1552 17.6392C33.1552 16.1816 31.9736 15 30.516 15C29.0584 15 27.8768 16.1816 27.8768 17.6392C27.8768 19.0968 29.0584 20.2784 30.516 20.2784Z" fill="#2F4740"/>
<path d="M37.2097 41.1842C36.7992 41.0576 36.3637 41.2877 36.2371 41.6982C36.2265 41.7337 36.2184 41.7698 36.2129 41.8064C36.2101 41.8054 36.2075 41.8042 36.2047 41.8033C35.8523 41.6946 35.4784 41.8922 35.3697 42.2446C35.2804 42.5339 35.3979 42.8374 35.6378 42.9971C35.3955 43.3965 35.0018 43.7377 34.6862 43.9694C34.6558 43.9917 34.6335 44.0232 34.6226 44.0592C34.6116 44.0952 34.6126 44.1337 34.6253 44.1691C34.6381 44.2045 34.662 44.2348 34.6934 44.2555C34.7248 44.2762 34.7621 44.2862 34.7996 44.284C35.9415 44.2177 36.6759 43.8858 36.6759 43.8858L36.6757 43.8854C37.0163 43.8792 37.3295 43.6574 37.4354 43.3142C37.5107 43.07 37.4646 42.8174 37.3317 42.621C37.4249 42.574 37.5077 42.5087 37.575 42.4289C37.6424 42.3492 37.693 42.2566 37.7237 42.1569C37.8502 41.7463 37.6202 41.3109 37.2097 41.1842ZM37.3224 19.9532C36.9717 19.7972 36.5612 19.9552 36.4053 20.3059L33.892 25.9603L35.3414 26.1207L37.6752 20.8704C37.831 20.5196 37.6731 20.109 37.3224 19.9532ZM31.4285 42.5725C31.6567 42.4292 31.8089 42.176 31.8089 41.8866C31.8089 41.4392 31.4461 41.0764 30.9987 41.0764H28.6936L33.3435 30.6155L31.894 30.4551C31.742 30.7969 27.361 40.653 27.1728 41.0764H24.0971C23.6497 41.0764 23.287 41.4392 23.287 41.8866C23.287 42.1937 23.4578 42.4607 23.7096 42.5981L23.0984 44.5234C23.0274 44.7471 23.1947 44.9754 23.4292 44.9754H29.6391V43.3955L30.1211 44.9754H31.717C31.9517 44.9754 32.1188 44.7468 32.0478 44.5234L31.4285 42.5725ZM41.3167 41.727C41.3217 41.6344 41.3058 41.5419 41.2702 41.4563C41.2346 41.3707 41.1802 41.2942 41.111 41.2325C41.1714 41.1803 41.2206 41.1165 41.2557 41.0449C41.2908 40.9733 41.3111 40.8953 41.3153 40.8156C41.3328 40.4878 41.0813 40.2079 40.7535 40.1903C40.4257 40.1727 40.1457 40.4243 40.1282 40.7521C40.1267 40.7807 40.1279 40.8088 40.1304 40.8367C40.1282 40.8365 40.126 40.8361 40.1238 40.836C39.9886 40.8287 39.8561 40.8755 39.7555 40.9659C39.6548 41.0564 39.5941 41.1831 39.5869 41.3183C39.5811 41.4281 39.6109 41.5369 39.6719 41.6284C39.7329 41.7199 39.8218 41.7893 39.9254 41.8262C39.8202 42.1672 39.5918 42.4933 39.401 42.7237C39.3826 42.7459 39.372 42.7733 39.3706 42.802C39.3691 42.8307 39.377 42.8591 39.3931 42.883C39.4091 42.9068 39.4324 42.9249 39.4595 42.9344C39.4866 42.9439 39.5161 42.9444 39.5435 42.9358C40.3776 42.6743 40.8602 42.2918 40.8602 42.2918L40.86 42.2916C41.1111 42.2237 41.302 42.0012 41.3167 41.727Z" fill="#2F4740"/>
</g>
<defs>
<clipPath id="clip0_7795_61702">
<rect width="30" height="30" fill="white" transform="translate(15 15)"/>
</clipPath>
</defs>
</svg>
