<svg width="48" height="48" viewBox="0 0 48 48" fill="none" xmlns="http://www.w3.org/2000/svg">
<circle cx="24" cy="24" r="23.5" fill="#F6FBFD" stroke="#0BBF90" stroke-dasharray="3 3"/>
<path d="M18.5 17.9038C17.9923 17.9038 17.5577 17.7231 17.1961 17.3615C16.8346 17 16.6538 16.5654 16.6538 16.0577C16.6538 15.55 16.8346 15.1154 17.1961 14.7538C17.5577 14.3923 17.9923 14.2115 18.5 14.2115C19.0077 14.2115 19.4423 14.3923 19.8038 14.7538C20.1654 15.1154 20.3461 15.55 20.3461 16.0577C20.3461 16.5654 20.1654 17 19.8038 17.3615C19.4423 17.7231 19.0077 17.9038 18.5 17.9038ZM17.8269 33.75C17.5708 33.75 17.3561 33.6634 17.1829 33.4901C17.0097 33.3169 16.9231 33.1022 16.9231 32.8461V26.9615H15.9423C15.6862 26.9615 15.4715 26.8749 15.2983 26.7017C15.1251 26.5284 15.0385 26.3138 15.0385 26.0577V21.0192C15.0385 20.5221 15.2155 20.0966 15.5695 19.7425C15.9235 19.3885 16.349 19.2115 16.8461 19.2115H20.1538C20.6509 19.2115 21.0765 19.3885 21.4305 19.7425C21.7845 20.0966 21.9615 20.5221 21.9615 21.0192V23.2577C21.0205 23.8257 20.25 24.6173 19.65 25.6327C19.05 26.6481 18.75 27.7705 18.75 29C18.75 29.8602 18.8978 30.6679 19.1933 31.423C19.4888 32.1782 19.8859 32.8243 20.3846 33.3615V33.75H17.8269ZM25.5192 33.7692C24.2064 33.7692 23.0833 33.3026 22.15 32.3692C21.2167 31.4359 20.75 30.3128 20.75 29C20.75 27.9987 21.0359 27.0962 21.6077 26.2923C22.1795 25.4885 22.932 24.9103 23.8654 24.5577V26.1942C23.3705 26.4993 22.9775 26.8948 22.6865 27.3806C22.3955 27.8664 22.25 28.4062 22.25 29C22.25 29.9167 22.5657 30.6907 23.1971 31.3221C23.8285 31.9535 24.6025 32.2692 25.5192 32.2692C26.3782 32.2692 27.1266 31.9728 27.7644 31.3798C28.4022 30.7869 28.7404 30.0417 28.7789 29.1442H30.2788C30.2275 30.4571 29.7453 31.5561 28.8322 32.4413C27.9191 33.3266 26.8148 33.7692 25.5192 33.7692ZM32.5769 30.7307L30.5846 27.75H26.1538C25.8977 27.75 25.6831 27.6634 25.5099 27.4901C25.3366 27.3169 25.25 27.1022 25.25 26.8461V21C25.25 20.7875 25.3219 20.6094 25.4657 20.4656C25.6095 20.3219 25.7877 20.25 26.0003 20.25C26.2129 20.25 26.391 20.3219 26.5346 20.4656C26.6782 20.6094 26.75 20.7875 26.75 21V26.25H30.9384C31.0923 26.25 31.2346 26.2869 31.3654 26.3606C31.4961 26.4343 31.6032 26.5314 31.6865 26.6519L33.8384 29.9096C33.95 30.0853 33.9839 30.2726 33.9404 30.4715C33.8968 30.6705 33.7878 30.826 33.6134 30.9379C33.4391 31.0498 33.2511 31.087 33.0495 31.0495C32.8478 31.012 32.6903 30.9057 32.5769 30.7307Z" fill="#2F4740"/>
</svg>
