<svg width="59" height="59" viewBox="0 0 59 59" fill="none" xmlns="http://www.w3.org/2000/svg">
<circle cx="29.5" cy="29.5" r="29" fill="white" stroke="#0BBF90" stroke-dasharray="3 3"/>
<path d="M15.8848 34.3945C17.0279 37.1226 19.2117 39.3615 22.0312 40.5369V42.3047C22.0312 42.7898 22.425 43.1836 22.9102 43.1836H37.0898C37.575 43.1836 37.9688 42.7898 37.9688 42.3047V40.5369C40.7883 39.3615 42.9721 37.1226 44.1152 34.3945H15.8848ZM44.1211 29.1211H15.8789C15.3938 29.1211 15 29.5148 15 30C15 30.9011 15.1066 31.7847 15.3105 32.6367H44.6895C44.8934 31.7847 45 30.9011 45 30C45 29.5148 44.6063 29.1211 44.1211 29.1211ZM24.1051 25.348C23.7619 25.0048 23.7619 24.4483 24.1051 24.1051C24.7331 23.477 24.7332 22.4605 24.1051 21.8324C22.7931 20.5204 22.7931 18.3858 24.1051 17.0738C24.4483 16.7306 25.0048 16.7306 25.3481 17.0738C25.6913 17.4171 25.6913 17.9735 25.3481 18.3168C24.7201 18.9449 24.72 19.9613 25.3481 20.5895C26.66 21.9014 26.66 24.0361 25.3481 25.348C25.0049 25.6912 24.4483 25.6913 24.1051 25.348ZM29.3786 25.348C29.0353 25.0048 29.0353 24.4483 29.3786 24.1051C30.0066 23.477 30.0066 22.4605 29.3786 21.8324C28.0666 20.5204 28.0666 18.3858 29.3786 17.0738C29.7217 16.7306 30.2783 16.7306 30.6215 17.0738C30.9647 17.4171 30.9647 17.9735 30.6215 18.3168C29.9935 18.9449 29.9934 19.9613 30.6215 20.5895C31.9335 21.9014 31.9335 24.0361 30.6215 25.348C30.2783 25.6912 29.7217 25.6913 29.3786 25.348ZM34.652 25.348C34.3088 25.0048 34.3088 24.4483 34.652 24.1051C35.2799 23.4771 35.2801 22.4605 34.652 21.8324C33.34 20.5204 33.34 18.3858 34.652 17.0738C34.9952 16.7306 35.5517 16.7306 35.8949 17.0738C36.2382 17.4171 36.2382 17.9735 35.8949 18.3168C35.267 18.9448 35.2669 19.9613 35.8949 20.5895C37.2069 21.9014 37.2069 24.0361 35.8949 25.348C35.5518 25.6912 34.9952 25.6913 34.652 25.348Z" fill="#2F4740"/>
</svg>
