<svg width="59" height="59" viewBox="0 0 59 59" fill="none" xmlns="http://www.w3.org/2000/svg">
<circle cx="29.5" cy="29.5" r="29" fill="white" stroke="#0BBF90" stroke-dasharray="3 3"/>
<path d="M40.94 25.6396L30.9865 20.6628C31.088 20.3105 31.2618 19.9823 31.563 19.7602C32.2351 19.2649 32.6367 18.471 32.6367 17.6367C32.6367 16.1828 31.4539 15 30 15C28.5461 15 27.3633 16.1828 27.3633 17.6367C27.3633 18.1225 27.7564 18.5156 28.2422 18.5156C28.728 18.5156 29.1211 18.1225 29.1211 17.6367C29.1211 17.1518 29.5151 16.7578 30 16.7578C30.4849 16.7578 30.8789 17.1518 30.8789 17.6367C30.8789 17.9191 30.7476 18.1775 30.5193 18.3457C29.7971 18.8782 29.3347 19.6801 29.1879 20.5757L19.06 25.6396C18.914 25.7126 18.7913 25.8249 18.7055 25.9637C18.6197 26.1026 18.5742 26.2626 18.5742 26.4258V29.9414C18.5742 30.4272 18.9673 30.8203 19.4531 30.8203H22.0898V44.1211C22.0898 44.6069 22.4829 45 22.9688 45H37.0312C37.5171 45 37.9102 44.6069 37.9102 44.1211V30.8203H40.5469C41.0327 30.8203 41.4258 30.4272 41.4258 29.9414V26.4258C41.4258 26.2626 41.3803 26.1026 41.2945 25.9637C41.2087 25.8248 41.086 25.7126 40.94 25.6396ZM32.6367 24.48C32.6367 25.9918 31.5073 27.3826 29.861 27.3007C28.463 27.2313 27.3633 26.0681 27.3633 24.668V23.4534L30 22.1351L32.6367 23.4534V24.48Z" fill="#2F4740"/>
</svg>
