<svg width="48" height="48" viewBox="0 0 48 48" fill="none" xmlns="http://www.w3.org/2000/svg">
<circle cx="24" cy="24" r="23.5" fill="#F6FBFD" stroke="#0BBF90" stroke-dasharray="3 3"/>
<path d="M25.75 24.7116C25.0513 24.7116 24.46 24.4696 23.976 23.9856C23.492 23.5017 23.2501 22.9103 23.2501 22.2116C23.2501 21.5129 23.492 20.9216 23.976 20.4376C24.46 19.9536 25.0513 19.7117 25.75 19.7117C26.4487 19.7117 27.0401 19.9536 27.524 20.4376C28.008 20.9216 28.25 21.5129 28.25 22.2116C28.25 22.9103 28.008 23.5017 27.524 23.9856C27.0401 24.4696 26.4487 24.7116 25.75 24.7116ZM19.1539 27.8077C18.6568 27.8077 18.2312 27.6307 17.8772 27.2767C17.5232 26.9227 17.3462 26.4972 17.3462 26.0001V18.4232C17.3462 17.9261 17.5232 17.5005 17.8772 17.1465C18.2312 16.7925 18.6568 16.6155 19.1539 16.6155H32.3461C32.8432 16.6155 33.2688 16.7925 33.6228 17.1465C33.9768 17.5005 34.1538 17.9261 34.1538 18.4232V26.0001C34.1538 26.4972 33.9768 26.9227 33.6228 27.2767C33.2688 27.6307 32.8432 27.8077 32.3461 27.8077H19.1539ZM20.6539 26.3078H30.8462C30.8462 25.8091 31.0232 25.3831 31.3772 25.0299C31.7312 24.6767 32.1567 24.5001 32.6539 24.5001V19.9231C32.1551 19.9231 31.7292 19.7461 31.376 19.3921C31.0228 19.0381 30.8462 18.6126 30.8462 18.1155H20.6539C20.6539 18.6142 20.4769 19.0401 20.1229 19.3933C19.7688 19.7465 19.3433 19.9231 18.8462 19.9231V24.5001C19.3449 24.5001 19.7709 24.6771 20.1241 25.0311C20.4773 25.3851 20.6539 25.8107 20.6539 26.3078ZM15.6539 31.3077C15.1568 31.3077 14.7313 31.1307 14.3773 30.7767C14.0233 30.4227 13.8463 29.9971 13.8463 29.5V20.3462C13.8463 20.1337 13.9182 19.9556 14.062 19.8119C14.2058 19.6681 14.384 19.5963 14.5966 19.5963C14.8092 19.5963 14.9872 19.6681 15.1308 19.8119C15.2744 19.9556 15.3462 20.1337 15.3462 20.3462V29.5C15.3462 29.5769 15.3783 29.6475 15.4424 29.7116C15.5065 29.7757 15.577 29.8077 15.6539 29.8077H30.4231C30.6356 29.8077 30.8137 29.8796 30.9574 30.0235C31.1012 30.1673 31.1731 30.3455 31.1731 30.5581C31.1731 30.7706 31.1012 30.9487 30.9574 31.0923C30.8137 31.2359 30.6356 31.3077 30.4231 31.3077H15.6539ZM19.1539 26.3078H18.8462V18.1155H19.1539C19.0705 18.1155 18.9984 18.1459 18.9375 18.2068C18.8766 18.2677 18.8462 18.3398 18.8462 18.4232V26.0001C18.8462 26.0834 18.8766 26.1555 18.9375 26.2164C18.9984 26.2773 19.0705 26.3078 19.1539 26.3078Z" fill="#2F4740"/>
</svg>
