<svg width="50" height="50" viewBox="0 0 50 50" fill="none" xmlns="http://www.w3.org/2000/svg">
<circle cx="25" cy="25" r="25" fill="white"/>
<path d="M34.9076 36.2564C32.3145 36.2564 29.7466 35.641 27.2038 34.4102C24.6611 33.1794 22.3911 31.5653 20.3936 29.5679C18.3962 27.5705 16.78 25.3025 15.5449 22.7641C14.3099 20.2256 13.6924 17.6598 13.6924 15.0667C13.6924 14.6667 13.8257 14.3334 14.0924 14.0667C14.359 13.8 14.6924 13.6667 15.0924 13.6667H19.441C19.7863 13.6667 20.0876 13.7731 20.3449 13.9859C20.6021 14.1987 20.7615 14.4735 20.8231 14.8103L21.5872 18.7333C21.6402 19.0615 21.6346 19.3598 21.5705 19.6282C21.5064 19.8966 21.3658 20.1308 21.1487 20.3308L18.082 23.3282C19.135 25.1162 20.3906 26.7316 21.8487 28.1744C23.3069 29.6171 24.9573 30.8752 26.8 31.9487L29.7795 28.918C29.9966 28.7009 30.2534 28.5466 30.55 28.4552C30.8466 28.3637 31.1504 28.3445 31.4615 28.3975L35.164 29.1513C35.5008 29.2265 35.7756 29.3893 35.9884 29.6398C36.2012 29.8902 36.3076 30.188 36.3076 30.5334V34.8564C36.3076 35.2564 36.1743 35.5897 35.9076 35.8564C35.641 36.123 35.3076 36.2564 34.9076 36.2564ZM17.1231 21.4359L19.5026 19.159C19.5453 19.1248 19.5731 19.0778 19.5859 19.018C19.5988 18.9581 19.5966 18.9026 19.5795 18.8513L19 15.8718C18.9829 15.8034 18.953 15.7521 18.9103 15.718C18.8675 15.6838 18.812 15.6667 18.7436 15.6667H15.8923C15.8411 15.6667 15.7983 15.6838 15.7641 15.718C15.7299 15.7521 15.7128 15.7949 15.7128 15.8462C15.7812 16.7573 15.9303 17.6829 16.1603 18.6231C16.3902 19.5633 16.7111 20.5009 17.1231 21.4359ZM34.1282 34.2154C34.1795 34.2154 34.2222 34.1983 34.2564 34.1641C34.2906 34.1299 34.3077 34.0871 34.3077 34.0359V31.2308C34.3077 31.1624 34.2906 31.1068 34.2564 31.0641C34.2222 31.0213 34.1709 30.9914 34.1025 30.9743L31.3026 30.4051C31.2513 30.388 31.2064 30.3859 31.1679 30.3987C31.1295 30.4115 31.0889 30.4393 31.0461 30.482L28.6718 32.882C29.5555 33.294 30.4773 33.609 31.4372 33.8269C32.397 34.0449 33.294 34.1743 34.1282 34.2154Z" fill="#0BBF90"/>
</svg>
