<svg width="183" height="46" viewBox="0 0 183 46" fill="none" xmlns="http://www.w3.org/2000/svg">
<rect width="46" height="46" rx="10.6154" fill="#0CC091"/>
<path d="M17.7502 18.3812C17.7502 18.1876 17.9333 18.0133 18.123 17.9335C18.2996 17.8591 18.4041 17.8417 18.6025 17.8233C18.8169 17.8035 18.9766 17.8184 19.1437 17.8391C19.4162 17.8728 19.8236 18.0105 19.8257 18.0112C19.8257 18.0112 19.8257 18.0112 19.8257 18.0113C19.8256 18.0113 19.8257 18.0114 19.8257 18.0114C20.3373 18.143 20.6055 18.7774 20.3031 19.2995C20.2834 19.3336 20.3264 19.3494 20.5822 19.4018C20.8411 19.4549 20.9035 19.478 21.0165 19.5628C21.3514 19.8142 21.4639 20.2846 21.2721 20.6321C21.1942 20.7732 21.1942 20.7795 21.2721 20.7924C21.5445 20.8373 21.8436 21.1809 21.8739 21.4835C21.8909 21.6526 21.8415 21.9118 21.7705 22.0265L21.7658 22.0343L21.7576 22.0478C21.7517 22.0576 21.746 22.0673 21.7408 22.0764C21.7215 22.11 21.7077 22.137 21.7066 22.1443C21.7048 22.155 21.7519 22.1956 21.8112 22.2346C21.9527 22.3276 22.0965 22.5327 22.1443 22.7096C22.1985 22.9101 22.1484 23.2012 22.028 23.3862C21.9375 23.5253 21.7174 23.6953 21.5787 23.7333C21.5091 23.7524 21.5007 23.7689 21.4723 23.9443C21.4685 23.9677 21.4647 23.9889 21.4609 24.008C21.4596 24.0145 21.4583 24.0207 21.457 24.0267L21.2771 25.0995C21.2755 25.143 21.2694 25.1943 21.2595 25.2555C21.2133 25.5403 21.2559 25.6853 21.42 25.8016C21.561 25.9017 21.7057 25.9019 21.8563 25.8022C21.9981 25.7083 22.0398 25.6016 22.1163 25.1354C22.1717 24.7978 22.1846 24.7546 22.2434 24.7119C22.3317 24.648 22.4838 24.6746 22.5411 24.7641C22.5815 24.8271 22.5757 24.8973 22.4695 25.6338C22.3412 26.5237 22.342 26.5407 22.518 26.6635C22.6811 26.7774 22.8585 26.7672 23.0295 26.6344C23.1116 26.5706 23.113 26.5654 23.2317 25.9226C23.3458 25.3044 23.3544 25.2727 23.4226 25.2234C23.4684 25.1902 23.5264 25.1779 23.5843 25.1892C23.7617 25.2237 23.7619 25.2278 23.633 26.1204L23.6282 26.1537C23.6282 26.1537 23.6282 26.1538 23.6282 26.1539C23.6282 26.1539 23.6282 26.154 23.6282 26.1541C23.537 26.7857 23.5139 26.9452 23.576 27.0564C23.5848 27.0722 23.5953 27.0871 23.6076 27.1021C23.6085 27.1032 23.6094 27.1043 23.6103 27.1054L23.6115 27.1069L23.6124 27.1079C23.6149 27.1108 23.6174 27.1138 23.62 27.1167C23.6232 27.1204 23.6265 27.1241 23.6299 27.1278L23.6313 27.1293L23.6327 27.1309C23.6334 27.1317 23.6342 27.1325 23.6349 27.1333L23.6364 27.1349L23.6373 27.1359C23.647 27.1464 23.6575 27.1573 23.6688 27.1691L23.6751 27.1757C23.7703 27.2752 23.9743 27.3065 24.1048 27.2418C24.2848 27.1524 24.3161 27.0745 24.4135 26.4742C24.4617 26.1773 24.5128 25.9142 24.5272 25.8894C24.5665 25.8216 24.724 25.7921 24.8021 25.8378C24.9322 25.9138 24.9323 25.9362 24.8087 26.7045C24.6788 27.5111 24.6806 27.5686 24.841 27.7092C25.0127 27.8598 25.2386 27.8453 25.4165 27.6723C25.4861 27.6046 25.4924 27.5725 25.8099 25.6642L26.1168 23.819C26.1267 23.7596 26.163 23.7079 26.2154 23.6788C26.3817 23.5862 26.4031 23.6062 26.9486 24.3638C27.4409 25.0474 27.4629 25.0731 27.5915 25.1147C28.014 25.2515 28.402 24.8757 28.2682 24.4593C28.248 24.3965 27.9572 23.965 27.622 23.5003C27.1314 22.8203 26.9802 22.631 26.8472 22.5303C26.7564 22.4615 26.0621 22.0523 25.3045 21.6211C24.5666 21.2012 24.0567 20.7329 24.0107 20.6906L24.0079 20.6881C24.0002 20.6811 23.8756 20.4978 23.6641 20.1865L23.6639 20.1862L23.6639 20.1861C23.2854 19.6292 22.6288 18.663 21.8657 17.5649C21.43 16.9166 21.0551 16.3751 20.7685 15.9611L20.7644 15.9552C20.5302 15.617 20.3294 15.3211 20.1883 15.107L17.5592 11.2731C17.5592 11.273 17.559 11.273 17.559 11.2732C17.559 11.2733 17.5589 11.2733 17.5588 11.2732L17.2866 10.8757C17.175 10.7127 16.9912 10.6154 16.7947 10.6154H14.2311C13.6999 10.6154 13.2693 11.0496 13.2693 11.5854V33.53C13.2693 34.0657 13.6999 34.5 14.2311 34.5H16.7884C17.3196 34.5 17.7502 34.0657 17.7502 33.53V18.3812Z" fill="white"/>
<path d="M32.7308 33.53C32.7308 34.0657 32.3002 34.5 31.769 34.5H29.419C29.1033 34.5 28.8076 34.3437 28.628 34.0818L25.6345 29.7174C25.6337 29.7163 25.6335 29.7149 25.6339 29.7136C25.6343 29.7123 25.6341 29.7108 25.6333 29.7097L25.389 29.3534C25.1615 29.0216 25.1831 28.5772 25.4416 28.2694L25.7352 27.9198C25.8441 27.7903 25.9173 27.6341 25.9475 27.467L26.3622 25.176C26.4175 24.8705 26.8113 24.7846 26.9868 25.0399L27.0829 25.1797C27.0833 25.1803 27.0834 25.1812 27.0832 25.1819C27.083 25.1826 27.0831 25.1835 27.0835 25.1841L28.215 26.8366C28.2405 26.8739 28.2825 26.8961 28.3273 26.8961C28.4027 26.8961 28.4639 26.8344 28.4639 26.7584V11.5854C28.4639 11.0496 28.8945 10.6154 29.4256 10.6154H31.769C32.3002 10.6154 32.7308 11.0496 32.7308 11.5854V33.53Z" fill="white"/>
<path d="M28.2608 23.6616C28.2608 23.6617 28.2609 23.6618 28.2609 23.6619C28.261 23.662 28.261 23.6621 28.261 23.6622C28.2611 23.6634 28.2595 23.664 28.2588 23.663C28.2221 23.6106 28.1822 23.5539 28.1388 23.4924C28.1387 23.4922 28.1387 23.4921 28.1387 23.4919C28.1388 23.4919 28.1388 23.4918 28.1388 23.4918C28.1388 23.4917 28.1389 23.4917 28.1389 23.4917C28.1389 23.4916 28.139 23.4916 28.139 23.4916C28.1392 23.4915 28.1393 23.4915 28.1394 23.4915C28.1395 23.4915 28.1396 23.4916 28.1397 23.4917L28.2608 23.6616Z" fill="white"/>
<path d="M19.6786 18.4127C19.6786 18.4128 19.6786 18.4129 19.6785 18.4129C19.6718 18.411 19.3436 18.3171 19.1258 18.2905C18.9882 18.2736 18.801 18.2673 18.6799 18.2649C18.6027 18.2634 18.5235 18.2682 18.4554 18.3049C18.2032 18.4407 18.1443 18.7916 18.407 18.9863C18.4824 19.0422 18.5779 19.0654 19.0582 19.1447C19.5385 19.224 19.6364 19.2326 19.7256 19.2039C19.9399 19.1348 20.0566 18.9177 19.9951 18.7026C19.9559 18.5655 19.8519 18.4685 19.6866 18.4149L19.6791 18.4124C19.6791 18.4124 19.679 18.4124 19.679 18.4124L19.679 18.4124L19.679 18.4124L19.6789 18.4124L19.6789 18.4124L19.6788 18.4124C19.6788 18.4124 19.6788 18.4125 19.6787 18.4125C19.6787 18.4125 19.6787 18.4126 19.6787 18.4126L19.6787 18.4127L19.6786 18.4127Z" fill="white"/>
<path d="M23.3218 17.2292C23.3837 17.282 23.6092 17.5619 23.9428 18.0377C24.349 18.6171 24.4737 18.8174 24.5248 18.9724C24.5831 19.1496 24.8733 20.6102 24.8531 20.6253C24.8485 20.6286 24.7162 20.5609 24.5591 20.4747L24.4793 20.4309C24.344 20.3567 24.2284 20.2509 24.1422 20.1223L23.3861 18.9949C23.2269 18.7576 23.0772 18.5478 22.9477 18.3663L22.9476 18.3661L22.9475 18.3661C22.6799 17.9909 22.4985 17.7367 22.4985 17.6112C22.4985 17.2944 23.0116 16.9646 23.3218 17.2292Z" fill="white"/>
<path d="M20.9315 20.2739C20.9403 20.1225 20.8854 20.0033 20.766 19.9148C20.6885 19.8574 20.5891 19.8348 19.9598 19.732C19.1576 19.601 19.0972 19.6035 18.9588 19.7722C18.8176 19.9444 18.8354 20.1663 19.0048 20.3435C19.0688 20.4106 19.1163 20.4225 19.7942 20.5422C20.4983 20.6664 20.5188 20.6685 20.6507 20.6253C20.8242 20.5684 20.9212 20.4469 20.9315 20.2739Z" fill="white"/>
<path d="M21.3158 21.2938C21.5333 21.4823 21.4706 21.8686 21.2049 21.9773C21.1133 22.0148 21.0502 22.0087 20.3601 21.8948C19.6705 21.7809 19.6083 21.7664 19.5334 21.7015C19.4169 21.6006 19.3752 21.4852 19.4001 21.3324C19.4248 21.1804 19.5092 21.0732 19.6491 21.0159C19.7346 20.981 19.8121 20.9888 20.489 21.1005C21.1791 21.2144 21.2408 21.2288 21.3158 21.2938Z" fill="white"/>
<path d="M21.7275 22.9949C21.7516 22.846 21.7132 22.7377 21.591 22.6099C21.5295 22.5456 21.4792 22.5309 21.0824 22.4611C20.5879 22.3741 20.5334 22.3718 20.41 22.4329C20.1468 22.5633 20.1097 22.9634 20.3454 23.128C20.4784 23.2208 21.3104 23.3549 21.458 23.3073C21.6152 23.2567 21.7011 23.157 21.7275 22.9949Z" fill="white"/>
<path fill-rule="evenodd" clip-rule="evenodd" d="M124.542 28.0062C125.272 26.6171 125.637 24.9483 125.637 23C125.637 21.0517 125.272 19.3859 124.542 18.0026C123.817 16.6135 122.828 15.551 121.573 14.8152C120.324 14.0794 118.907 13.7115 117.322 13.7115C115.738 13.7115 114.318 14.0794 113.063 14.8152C111.814 15.551 110.825 16.6135 110.094 18.0026C109.37 19.3859 109.007 21.0517 109.007 23C109.007 24.9425 109.37 26.6083 110.094 27.9974C110.825 29.3807 111.814 30.4431 113.063 31.1848C114.318 31.9206 115.738 32.2885 117.322 32.2885C118.907 32.2885 120.324 31.9206 121.573 31.1848C122.828 30.449 123.817 29.3895 124.542 28.0062ZM121.696 19.5301C122.126 20.4719 122.342 21.6285 122.342 23C122.342 24.3715 122.126 25.5311 121.696 26.4788C121.272 27.4206 120.683 28.1357 119.929 28.6243C119.175 29.107 118.306 29.3483 117.322 29.3483C116.339 29.3483 115.47 29.107 114.716 28.6243C113.962 28.1357 113.37 27.4206 112.94 26.4788C112.515 25.5311 112.303 24.3715 112.303 23C112.303 21.6285 112.515 20.4719 112.94 19.5301C113.37 18.5824 113.962 17.8672 114.716 17.3846C115.47 16.896 116.339 16.6517 117.322 16.6517C118.306 16.6517 119.175 16.896 119.929 17.3846C120.683 17.8672 121.272 18.5824 121.696 19.5301Z" fill="#52615D"/>
<path fill-rule="evenodd" clip-rule="evenodd" d="M78.8489 32.0413C78.3446 32.0413 77.9917 31.5432 78.1592 31.0679L84.0153 14.4468C84.1183 14.1544 84.3948 13.9588 84.7051 13.9588H87.7167C88.0269 13.9588 88.3033 14.1543 88.4064 14.4465L94.2707 31.0676C94.4384 31.543 94.0854 32.0413 93.581 32.0413H91.6407C91.3266 32.0413 91.0476 31.8408 90.9475 31.5433L89.7831 28.0804C89.683 27.7829 89.404 27.5824 89.0899 27.5824H83.3381C83.0238 27.5824 82.7447 27.7831 82.6447 28.0808L81.4827 31.5429C81.3828 31.8406 81.1036 32.0413 80.7894 32.0413H78.8489ZM88.6013 24.5659C88.665 24.7553 88.524 24.9513 88.324 24.9513H84.1018C83.9019 24.9513 83.7609 24.7554 83.8245 24.5661L86.1176 17.7341C86.131 17.6941 86.1686 17.6671 86.2108 17.6671C86.253 17.6671 86.2905 17.694 86.304 17.734L88.6013 24.5659Z" fill="#52615D"/>
<path d="M106.742 14.6895C106.742 14.2859 106.415 13.9588 106.011 13.9588H104.222C103.818 13.9588 103.49 14.2859 103.49 14.6895V26.673C103.485 27.3087 103.384 27.8444 103.19 28.28C103.002 28.7155 102.725 29.0452 102.359 29.2688C101.994 29.4866 101.549 29.5955 101.025 29.5955C100.542 29.5955 100.115 29.5013 99.7439 29.313C99.3727 29.1246 99.0811 28.8539 98.869 28.5007C98.7712 28.3331 98.6959 28.1503 98.6432 27.9523C98.5402 27.5656 98.2289 27.2381 97.8284 27.2381H96.0216C95.6177 27.2381 95.2848 27.5663 95.3286 27.9675C95.4154 28.7634 95.6501 29.4503 96.0326 30.0282C96.5274 30.7757 97.196 31.3408 98.0384 31.7234C98.8867 32.1001 99.8411 32.2885 100.901 32.2885C102.062 32.2885 103.078 32.0648 103.95 31.6174C104.828 31.1642 105.511 30.5197 106 29.6838C106.489 28.8421 106.736 27.8385 106.742 26.673V14.6895Z" fill="#52615D"/>
<path d="M126.215 14.6895C126.215 14.2859 126.543 13.9588 126.946 13.9588H139.923C140.326 13.9588 140.654 14.2859 140.654 14.6895V15.974C140.654 16.3775 140.326 16.7047 139.923 16.7047H135.353C135.191 16.7047 135.06 16.8356 135.06 16.997V31.3106C135.06 31.7141 134.733 32.0413 134.329 32.0413H132.54C132.136 32.0413 131.809 31.7141 131.809 31.3106V16.997C131.809 16.8356 131.678 16.7047 131.516 16.7047H126.946C126.543 16.7047 126.215 16.3775 126.215 15.974V14.6895Z" fill="#52615D"/>
<path d="M65.3301 19.8539C65.3301 19.7081 65.4693 19.5768 65.6135 19.5167C65.7478 19.4607 65.8273 19.4475 65.9781 19.4337C66.1412 19.4187 66.2625 19.43 66.3896 19.4455C66.5968 19.471 66.9066 19.5747 66.9082 19.5752C67.2971 19.6744 67.5011 20.1524 67.2712 20.5457C67.2562 20.5714 67.2888 20.5832 67.4833 20.6227C67.6802 20.6627 67.7277 20.6802 67.8136 20.744C68.0682 20.9334 68.1537 21.2877 68.0079 21.5495C67.9486 21.6558 67.9487 21.6606 68.0079 21.6703C68.215 21.7041 68.4424 21.9629 68.4655 22.1909C68.4784 22.3182 68.4409 22.5135 68.3869 22.5999L68.3833 22.6057L68.377 22.6159C68.3725 22.6233 68.3682 22.6306 68.3642 22.6375C68.3496 22.6628 68.3391 22.6831 68.3382 22.6886C68.3369 22.6967 68.3727 22.7273 68.4178 22.7567C68.5254 22.8267 68.6347 22.9812 68.6711 23.1145C68.7122 23.2655 68.6742 23.4848 68.5827 23.6242C68.5138 23.7289 68.3465 23.857 68.241 23.8856C68.1881 23.9 68.1818 23.9124 68.1601 24.0446C68.1572 24.0622 68.1544 24.0781 68.1515 24.0925C68.1505 24.0974 68.1495 24.1021 68.1485 24.1066L68.0117 24.9148C68.0105 24.9475 68.0059 24.9862 67.9983 25.0323C67.9632 25.2468 67.9956 25.356 68.1203 25.4437C68.2276 25.5191 68.3376 25.5192 68.4521 25.4441C68.5599 25.3734 68.5916 25.293 68.6498 24.9418C68.6919 24.6875 68.7017 24.6549 68.7464 24.6228C68.8135 24.5746 68.9292 24.5947 68.9728 24.6621C69.0035 24.7095 68.9991 24.7624 68.9183 25.3172C68.8207 25.9876 68.8214 26.0004 68.9552 26.0929C69.0792 26.1787 69.2141 26.171 69.3441 26.071C69.4065 26.0229 69.4076 26.019 69.4978 25.5348C69.5846 25.0691 69.5912 25.0452 69.643 25.0081C69.6779 24.9831 69.7219 24.9738 69.7659 24.9823C69.9008 25.0083 69.901 25.0114 69.803 25.6838L69.7993 25.7088C69.73 26.1846 69.7124 26.3051 69.7596 26.3889C69.7663 26.4008 69.7743 26.412 69.7837 26.4233C69.7844 26.4241 69.785 26.425 69.7857 26.4258L69.7866 26.4269C69.7885 26.4291 69.7911 26.4321 69.7931 26.4343C69.7955 26.437 69.798 26.4398 69.8006 26.4427L69.8017 26.4438L69.8028 26.445C69.8033 26.4456 69.8039 26.4462 69.8044 26.4468L69.8055 26.448C69.8129 26.4559 69.8216 26.4649 69.8302 26.4737L69.835 26.4788C69.9073 26.5537 70.0625 26.5773 70.1617 26.5285C70.2986 26.4612 70.3224 26.4025 70.3964 25.9503C70.4331 25.7267 70.4719 25.5284 70.4829 25.5098C70.5127 25.4587 70.6325 25.4365 70.6919 25.4709C70.7908 25.5282 70.7909 25.5451 70.6969 26.1238C70.5981 26.7314 70.5995 26.7747 70.7214 26.8806C70.852 26.994 71.0237 26.9831 71.159 26.8528C71.2119 26.8018 71.2167 26.7776 71.4581 25.3402L71.6915 23.9502C71.6991 23.9054 71.7266 23.8665 71.7665 23.8445C71.8929 23.7748 71.9092 23.7899 72.324 24.3605C72.6982 24.8755 72.715 24.8949 72.8127 24.9262C73.134 25.0292 73.429 24.7462 73.3272 24.4325C73.3119 24.3852 73.0908 24.0601 72.8359 23.7101C72.4629 23.1979 72.348 23.0553 72.2469 22.9794C72.1778 22.9275 71.6499 22.6193 71.0738 22.2945C70.5128 21.9782 70.1251 21.6254 70.0901 21.5936L70.0881 21.5917C70.0822 21.5864 69.9875 21.4483 69.8267 21.2139C69.5389 20.7943 69.0394 20.0662 68.4593 19.239C68.128 18.7507 67.8429 18.3428 67.625 18.0309L67.6219 18.0264C67.4438 17.7717 67.2912 17.5488 67.1839 17.3875L65.1849 14.4995L64.9776 14.2001C64.8928 14.0773 64.753 14.004 64.6036 14.004H62.6544C62.2505 14.004 61.9231 14.3311 61.9231 14.7347V31.2653C61.9231 31.6689 62.2505 31.996 62.6544 31.996H64.5988C65.0027 31.996 65.3301 31.6689 65.3301 31.2653V19.8539Z" fill="#52615D"/>
<path d="M76.7204 31.2653C76.7204 31.6689 76.393 31.996 75.9891 31.996H74.2023C73.9622 31.996 73.7374 31.8783 73.6009 31.681L71.3248 28.3934C71.3242 28.3926 71.324 28.3915 71.3244 28.3905C71.3247 28.3895 71.3245 28.3884 71.3239 28.3876L71.1381 28.1191C70.9652 27.8692 70.9816 27.5345 71.1781 27.3026L71.4014 27.0393C71.4841 26.9417 71.5398 26.8241 71.5628 26.6982L71.8781 24.9724C71.9201 24.7422 72.2196 24.6776 72.353 24.8698L72.426 24.9752C72.4264 24.9756 72.4265 24.9763 72.4263 24.9768C72.4261 24.9774 72.4262 24.978 72.4265 24.9785L73.2868 26.2233C73.3062 26.2514 73.3381 26.2681 73.3722 26.2681C73.4296 26.2681 73.476 26.2217 73.476 26.1644V14.7347C73.476 14.3311 73.8034 14.004 74.2073 14.004H75.9891C76.393 14.004 76.7204 14.3311 76.7204 14.7347V31.2653Z" fill="#52615D"/>
<path d="M73.3217 23.8318C73.3218 23.8327 73.3207 23.8334 73.3201 23.8327C73.2922 23.7932 73.2619 23.7505 73.2289 23.7041L73.3217 23.8318Z" fill="#52615D"/>
<path d="M66.7962 19.8778C66.7911 19.8763 66.5416 19.8057 66.376 19.7856C66.2714 19.7729 66.1291 19.7681 66.037 19.7663C65.9783 19.7652 65.918 19.7688 65.8663 19.7964C65.6745 19.8988 65.6297 20.1631 65.8294 20.3097C65.8868 20.3518 65.9594 20.3693 66.3246 20.4291C66.6898 20.4888 66.7642 20.4953 66.832 20.4736C66.995 20.4216 67.0838 20.2581 67.037 20.0961C67.0072 19.9928 66.928 19.9197 66.8024 19.8793L66.7962 19.8778Z" fill="#52615D"/>
<path d="M69.5663 18.9861C69.6134 19.0259 69.7849 19.2368 70.0385 19.5952C70.3474 20.0316 70.4422 20.1825 70.481 20.2992C70.5254 20.4328 70.746 21.533 70.7306 21.5443C70.7272 21.5469 70.6266 21.4959 70.5071 21.431L70.4464 21.398C70.3436 21.3421 70.2557 21.2624 70.1901 21.1655L69.6152 20.3162C69.4942 20.1375 69.3804 19.9794 69.2819 19.8427C69.0784 19.5601 68.9404 19.3684 68.9404 19.2739C68.9404 19.0352 69.3305 18.7868 69.5663 18.9861Z" fill="#52615D"/>
<path d="M67.7489 21.2797C67.7557 21.1656 67.7139 21.0759 67.6231 21.0092C67.5642 20.9659 67.4886 20.9489 67.0101 20.8715C66.4002 20.7728 66.3543 20.7746 66.249 20.9017C66.1417 21.0315 66.1552 21.1986 66.284 21.3321C66.3327 21.3826 66.3688 21.3916 66.8842 21.4818C67.4195 21.5754 67.4351 21.5769 67.5354 21.5443C67.6674 21.5015 67.7411 21.41 67.7489 21.2797Z" fill="#52615D"/>
<path d="M68.0411 22.048C68.2065 22.1899 68.1588 22.4809 67.9568 22.5628C67.8871 22.5911 67.8392 22.5864 67.3145 22.5006C66.7901 22.4149 66.7429 22.404 66.6859 22.3551C66.5974 22.279 66.5657 22.1921 66.5846 22.077C66.6034 21.9625 66.6675 21.8818 66.7739 21.8386C66.8389 21.8123 66.8979 21.8182 67.4125 21.9023C67.9372 21.9881 67.9841 21.999 68.0411 22.048Z" fill="#52615D"/>
<path d="M68.3541 23.3294C68.3725 23.2172 68.3433 23.1357 68.2504 23.0393C68.2036 22.9909 68.1654 22.9798 67.8637 22.9273C67.4877 22.8617 67.4462 22.86 67.3524 22.9061C67.1523 23.0043 67.1241 23.3057 67.3033 23.4296C67.4045 23.4995 68.037 23.6006 68.1492 23.5647C68.2688 23.5266 68.3341 23.4515 68.3541 23.3294Z" fill="#52615D"/>
<path d="M142.985 32.2765C142.348 32.2765 141.8 32.0457 141.341 31.5841C140.883 31.1145 140.654 30.5494 140.654 29.8888C140.654 29.2361 140.883 28.6789 141.341 28.2173C141.8 27.7477 142.348 27.5129 142.985 27.5129C143.622 27.5129 144.169 27.7477 144.628 28.2173C145.086 28.6789 145.315 29.2361 145.315 29.8888C145.315 30.3265 145.207 30.7285 144.989 31.0946C144.779 31.4527 144.5 31.7393 144.15 31.9542C143.8 32.1691 143.412 32.2765 142.985 32.2765Z" fill="#52615D"/>
<path d="M160.057 24.4446V15.4596C160.057 14.4942 160.839 13.7115 161.805 13.7115C162.77 13.7115 163.553 14.4942 163.553 15.4596V30.3366C163.553 31.2827 162.786 32.0497 161.84 32.0497H161.715C160.838 32.0497 160.127 31.3388 160.127 30.4618V28.986C160.127 28.9241 160.077 28.8739 160.015 28.8739C159.97 28.8739 159.929 28.901 159.911 28.9424C159.497 29.891 158.847 30.684 157.959 31.3214C157.058 31.9661 155.935 32.2885 154.591 32.2885C153.441 32.2885 152.424 32.0298 151.538 31.5124C150.66 30.9871 149.969 30.2111 149.464 29.1844C148.966 28.1576 148.718 26.8881 148.718 25.3759V15.4538C148.718 14.4916 149.498 13.7115 150.46 13.7115C151.422 13.7115 152.202 14.4916 152.202 15.4538V24.946C152.202 26.1957 152.54 27.1906 153.216 27.9308C153.892 28.671 154.77 29.0411 155.85 29.0411C156.502 29.0411 157.151 28.8739 157.796 28.5397C158.449 28.2054 158.989 27.7 159.416 27.0234C159.851 26.3469 160.065 25.4873 160.057 24.4446Z" fill="#52615D"/>
<path d="M169.689 32.0497C168.68 32.0497 167.862 31.2318 167.862 30.223C167.862 29.8204 167.995 29.4292 168.24 29.11L177.532 17.0164C177.549 16.9946 177.558 16.9679 177.558 16.9404C177.558 16.8715 177.502 16.8157 177.433 16.8157H169.729C168.871 16.8157 168.176 16.1208 168.176 15.2636C168.176 14.4064 168.871 13.7115 169.729 13.7115H179.951C181.03 13.7115 181.904 14.586 181.904 15.6646C181.904 16.0863 181.768 16.4967 181.515 16.8344L172.607 28.745C172.59 28.7667 172.582 28.7931 172.582 28.8202C172.582 28.8894 172.638 28.9456 172.707 28.9456H180.679C181.536 28.9456 182.231 29.6405 182.231 30.4976C182.231 31.3548 181.536 32.0497 180.679 32.0497H169.689Z" fill="#52615D"/>
</svg>
